<mxfile modified="2021-10-28T02:54:26.924Z" host="app.diagrams.net" agent="5.0 (Windows NT 10.0; Win64; x64) AppleWebKit/537.36 (KHTML, like Gecko) Chrome/90.0.4430.72 Safari/537.36" etag="oXP_isV8WLj_irFu3dFQ" version="15.6.1" type="github">
  <diagram id="d1ab7348-05c3-a1e3-ca4d-12c340fd6b49" name="Page-1">
    <mxGraphModel dx="1234" dy="517" grid="1" gridSize="10" guides="1" tooltips="1" connect="1" arrows="1" fold="1" page="1" pageScale="1" pageWidth="1169" pageHeight="827" background="none" math="0" shadow="0">
      <root>
        <mxCell id="0" />
        <mxCell id="1" parent="0" />
        <mxCell id="2" value="&lt;b&gt;登录/注册详细流程&lt;/b&gt;" style="fillColor=#F6F6F6;strokeColor=none;shadow=0;gradientColor=none;fontSize=14;align=left;spacing=10;fontColor=#717171;9E9E9E;verticalAlign=top;spacingTop=-4;fontStyle=0;spacingLeft=40;html=1;" parent="1" vertex="1">
          <mxGeometry x="228.5" y="45" width="640" height="520" as="geometry" />
        </mxCell>
        <mxCell id="407" style="edgeStyle=orthogonalEdgeStyle;rounded=0;html=1;dashed=0;labelBackgroundColor=none;startArrow=none;startFill=0;startSize=4;endArrow=blockThin;endFill=1;endSize=4;strokeColor=#4284F3;strokeWidth=2;fontSize=12;exitX=1;exitY=0.5;exitDx=0;exitDy=0;entryX=0;entryY=0.5;entryDx=0;entryDy=0;" parent="1" source="gkzEU2F8MHpK_U1UK7pQ-420" target="376" edge="1">
          <mxGeometry relative="1" as="geometry">
            <Array as="points">
              <mxPoint x="585" y="502" />
              <mxPoint x="599" y="502" />
              <mxPoint x="599" y="500" />
              <mxPoint x="649" y="500" />
              <mxPoint x="649" y="145" />
            </Array>
            <mxPoint x="598.5" y="550" as="sourcePoint" />
          </mxGeometry>
        </mxCell>
        <mxCell id="341" value="App" style="rounded=1;absoluteArcSize=1;arcSize=2;html=1;strokeColor=#4284F3;gradientColor=none;shadow=0;dashed=1;fontSize=12;fontColor=#9E9E9E;align=left;verticalAlign=top;spacing=10;spacingTop=-4;fillColor=none;dashPattern=1 2;strokeWidth=2;" parent="1" vertex="1">
          <mxGeometry x="100" y="90" width="529.5" height="505" as="geometry" />
        </mxCell>
        <mxCell id="397" style="edgeStyle=orthogonalEdgeStyle;rounded=0;html=1;dashed=0;labelBackgroundColor=none;startArrow=none;startFill=0;startSize=4;endArrow=blockThin;endFill=1;endSize=4;strokeColor=#4284F3;strokeWidth=2;fontSize=12;" parent="1" source="340" target="361" edge="1">
          <mxGeometry relative="1" as="geometry">
            <Array as="points">
              <mxPoint x="234.5" y="255" />
              <mxPoint x="234.5" y="255" />
            </Array>
          </mxGeometry>
        </mxCell>
        <mxCell id="340" value="多身份" style="rounded=1;absoluteArcSize=1;arcSize=2;html=1;strokeColor=none;gradientColor=none;shadow=0;dashed=0;fontSize=12;fontColor=#9E9E9E;align=left;verticalAlign=top;spacing=10;spacingTop=-4;fillColor=#EFEBE9;" parent="1" vertex="1">
          <mxGeometry x="110.5" y="165" width="110" height="130" as="geometry" />
        </mxCell>
        <mxCell id="401" style="edgeStyle=orthogonalEdgeStyle;rounded=0;html=1;dashed=0;labelBackgroundColor=none;startArrow=none;startFill=0;startSize=4;endArrow=blockThin;endFill=1;endSize=4;strokeColor=#4284F3;strokeWidth=2;fontSize=12;" parent="1" source="356" target="365" edge="1">
          <mxGeometry relative="1" as="geometry">
            <Array as="points">
              <mxPoint x="228.5" y="440" />
              <mxPoint x="228.5" y="440" />
            </Array>
          </mxGeometry>
        </mxCell>
        <mxCell id="356" value="" style="shape=image;html=1;verticalAlign=top;verticalLabelPosition=bottom;labelBackgroundColor=#ffffff;imageAspect=0;aspect=fixed;image=https://cdn3.iconfinder.com/data/icons/fatcow/32/application_form_edit.png;shadow=0;dashed=0;fontFamily=Helvetica;fontSize=12;fontColor=#9E9E9E;align=left;fillColor=#EFEBE9;" parent="1" vertex="1">
          <mxGeometry x="110.5" y="415" width="110" height="130" as="geometry" />
        </mxCell>
        <mxCell id="398" style="edgeStyle=orthogonalEdgeStyle;rounded=0;html=1;dashed=0;labelBackgroundColor=none;startArrow=none;startFill=0;startSize=4;endArrow=blockThin;endFill=1;endSize=4;strokeColor=#4284F3;strokeWidth=2;fontSize=12;exitX=0.5;exitY=1;exitDx=0;exitDy=0;" parent="1" source="gkzEU2F8MHpK_U1UK7pQ-420" edge="1">
          <mxGeometry relative="1" as="geometry">
            <Array as="points">
              <mxPoint x="510" y="533" />
            </Array>
            <mxPoint x="328.5" y="189" as="sourcePoint" />
            <mxPoint x="510" y="701" as="targetPoint" />
          </mxGeometry>
        </mxCell>
        <mxCell id="399" style="edgeStyle=orthogonalEdgeStyle;rounded=0;html=1;dashed=0;labelBackgroundColor=none;startArrow=none;startFill=0;startSize=4;endArrow=blockThin;endFill=1;endSize=4;strokeColor=#4284F3;strokeWidth=2;fontSize=12;" parent="1" source="361" target="363" edge="1">
          <mxGeometry relative="1" as="geometry" />
        </mxCell>
        <mxCell id="361" value="" style="strokeColor=#dddddd;fillColor=#ffffff;shadow=1;strokeWidth=1;rounded=1;absoluteArcSize=1;arcSize=2;fontSize=12;fontColor=#9E9E9E;align=center;html=1;" parent="1" vertex="1">
          <mxGeometry x="248.5" y="220" width="161.5" height="70" as="geometry" />
        </mxCell>
        <mxCell id="362" value="&lt;font color=&quot;#000000&quot;&gt;手机+动态验证码+身份&lt;/font&gt;&lt;hr&gt;&lt;font style=&quot;font-size: 11px&quot;&gt;认证&lt;/font&gt;" style="dashed=0;connectable=0;html=1;fillColor=#5184F3;strokeColor=none;shape=mxgraph.gcp2.hexIcon;prIcon=cloud_pubsub;part=1;labelPosition=right;verticalLabelPosition=middle;align=left;verticalAlign=top;spacingLeft=5;fontColor=#999999;fontSize=12;spacingTop=-8;" parent="361" vertex="1">
          <mxGeometry width="44" height="39" relative="1" as="geometry">
            <mxPoint x="5" y="7" as="offset" />
          </mxGeometry>
        </mxCell>
        <mxCell id="400" style="edgeStyle=orthogonalEdgeStyle;rounded=0;html=1;exitX=0.5;exitY=1;dashed=0;labelBackgroundColor=none;startArrow=none;startFill=0;startSize=4;endArrow=blockThin;endFill=1;endSize=4;strokeColor=#4284F3;strokeWidth=2;fontSize=12;entryX=0.432;entryY=0;entryDx=0;entryDy=0;entryPerimeter=0;" parent="1" source="363" target="356" edge="1">
          <mxGeometry relative="1" as="geometry">
            <mxPoint x="515" y="335" as="targetPoint" />
          </mxGeometry>
        </mxCell>
        <mxCell id="OkfPjaItKJtlT03lLJa_-421" value="跳转" style="edgeLabel;html=1;align=center;verticalAlign=middle;resizable=0;points=[];" vertex="1" connectable="0" parent="400">
          <mxGeometry x="-0.0779" relative="1" as="geometry">
            <mxPoint as="offset" />
          </mxGeometry>
        </mxCell>
        <mxCell id="405" style="edgeStyle=orthogonalEdgeStyle;rounded=0;html=1;dashed=0;labelBackgroundColor=none;startArrow=none;startFill=0;startSize=4;endArrow=blockThin;endFill=1;endSize=4;strokeColor=#4284F3;strokeWidth=2;fontSize=12;" parent="1" source="363" edge="1">
          <mxGeometry relative="1" as="geometry">
            <Array as="points">
              <mxPoint x="618.5" y="255" />
              <mxPoint x="618.5" y="435" />
              <mxPoint x="528.5" y="435" />
            </Array>
            <mxPoint x="528.5" y="465" as="targetPoint" />
          </mxGeometry>
        </mxCell>
        <mxCell id="OkfPjaItKJtlT03lLJa_-420" value="查询" style="edgeLabel;html=1;align=center;verticalAlign=middle;resizable=0;points=[];" vertex="1" connectable="0" parent="405">
          <mxGeometry x="-0.5437" y="1" relative="1" as="geometry">
            <mxPoint as="offset" />
          </mxGeometry>
        </mxCell>
        <mxCell id="363" value="" style="strokeColor=#dddddd;fillColor=#ffffff;shadow=1;strokeWidth=1;rounded=1;absoluteArcSize=1;arcSize=2;fontSize=12;fontColor=#9E9E9E;align=center;html=1;" parent="1" vertex="1">
          <mxGeometry x="430.5" y="220" width="168" height="70" as="geometry" />
        </mxCell>
        <mxCell id="364" value="&lt;font color=&quot;#000000&quot;&gt;？？身份不存在&lt;/font&gt;&lt;br&gt;&lt;hr&gt;&lt;span style=&quot;font-size: 11px&quot;&gt;认证&lt;/span&gt;" style="dashed=0;connectable=0;html=1;fillColor=#5184F3;strokeColor=none;shape=mxgraph.gcp2.hexIcon;prIcon=cloud_dataflow;part=1;labelPosition=right;verticalLabelPosition=middle;align=left;verticalAlign=top;spacingLeft=5;fontColor=#999999;fontSize=12;spacingTop=-8;" parent="363" vertex="1">
          <mxGeometry width="50" height="40" relative="1" as="geometry">
            <mxPoint x="5" y="7" as="offset" />
          </mxGeometry>
        </mxCell>
        <mxCell id="gkzEU2F8MHpK_U1UK7pQ-414" value="" style="html=1;fillColor=#5184F3;strokeColor=none;verticalAlign=top;labelPosition=center;verticalLabelPosition=bottom;align=center;spacingTop=-6;fontSize=11;fontStyle=1;fontColor=#999999;shape=mxgraph.gcp2.hexIcon;prIcon=traffic_director" parent="363" vertex="1">
          <mxGeometry x="2.5" width="57.5" height="50" as="geometry" />
        </mxCell>
        <mxCell id="403" style="edgeStyle=orthogonalEdgeStyle;rounded=0;html=1;dashed=0;labelBackgroundColor=none;startArrow=none;startFill=0;startSize=4;endArrow=blockThin;endFill=1;endSize=4;strokeColor=#4284F3;strokeWidth=2;fontSize=12;" parent="1" source="365" edge="1">
          <mxGeometry relative="1" as="geometry">
            <Array as="points">
              <mxPoint x="498.5" y="435" />
            </Array>
            <mxPoint x="498.5" y="465" as="targetPoint" />
          </mxGeometry>
        </mxCell>
        <mxCell id="365" value="" style="strokeColor=#dddddd;fillColor=#ffffff;shadow=1;strokeWidth=1;rounded=1;absoluteArcSize=1;arcSize=2;fontSize=12;fontColor=#9E9E9E;align=center;html=1;" parent="1" vertex="1">
          <mxGeometry x="248.5" y="405" width="150" height="70" as="geometry" />
        </mxCell>
        <mxCell id="366" value="&lt;font color=&quot;#000000&quot;&gt;学生信息&lt;/font&gt;&lt;br&gt;&lt;hr&gt;&lt;span style=&quot;font-size: 11px&quot;&gt;身份注册&lt;/span&gt;" style="dashed=0;connectable=0;html=1;fillColor=#5184F3;strokeColor=none;shape=mxgraph.gcp2.hexIcon;prIcon=cloud_dataflow;part=1;labelPosition=right;verticalLabelPosition=middle;align=left;verticalAlign=top;spacingLeft=5;fontColor=#999999;fontSize=12;spacingTop=-8;" parent="365" vertex="1">
          <mxGeometry width="44" height="39" relative="1" as="geometry">
            <mxPoint x="5" y="7" as="offset" />
          </mxGeometry>
        </mxCell>
        <mxCell id="376" value="" style="strokeColor=#dddddd;fillColor=#ffffff;shadow=1;strokeWidth=1;rounded=1;absoluteArcSize=1;arcSize=2;fontSize=12;fontColor=#9E9E9E;align=center;html=1;" parent="1" vertex="1">
          <mxGeometry x="680.5" y="115" width="158" height="60" as="geometry" />
        </mxCell>
        <mxCell id="377" value="&lt;font color=&quot;#000000&quot;&gt;&amp;nbsp; &amp;nbsp; 权限_可见菜单&lt;/font&gt;" style="dashed=0;connectable=0;html=1;fillColor=#5184F3;strokeColor=none;shape=mxgraph.gcp2.hexIcon;prIcon=app_engine;part=1;labelPosition=right;verticalLabelPosition=middle;align=left;verticalAlign=middle;spacingLeft=5;fontColor=#999999;fontSize=12;" parent="376" vertex="1">
          <mxGeometry y="0.5" width="44" height="39" relative="1" as="geometry">
            <mxPoint x="5" y="-19.5" as="offset" />
          </mxGeometry>
        </mxCell>
        <mxCell id="410" style="edgeStyle=orthogonalEdgeStyle;rounded=0;html=1;dashed=0;labelBackgroundColor=none;startArrow=none;startFill=0;startSize=4;endArrow=blockThin;endFill=1;endSize=4;strokeColor=#4284F3;strokeWidth=2;fontSize=12;" parent="1" source="380" target="382" edge="1">
          <mxGeometry relative="1" as="geometry">
            <Array as="points">
              <mxPoint x="759.5" y="295" />
              <mxPoint x="759.5" y="295" />
            </Array>
          </mxGeometry>
        </mxCell>
        <mxCell id="380" value="" style="strokeColor=#dddddd;fillColor=#ffffff;shadow=1;strokeWidth=1;rounded=1;absoluteArcSize=1;arcSize=2;fontSize=12;fontColor=#9E9E9E;align=center;html=1;" parent="1" vertex="1">
          <mxGeometry x="680.5" y="200" width="158" height="81" as="geometry" />
        </mxCell>
        <mxCell id="382" value="" style="shape=mxgraph.gcp2.doubleRect;strokeColor=#dddddd;fillColor=#ffffff;shadow=1;strokeWidth=1;fontSize=12;fontColor=#9E9E9E;align=center;html=1;" parent="1" vertex="1">
          <mxGeometry x="680.5" y="301" width="168" height="68" as="geometry" />
        </mxCell>
        <mxCell id="383" value="&lt;font color=&quot;#000000&quot;&gt;&amp;nbsp; &amp;nbsp; 角色管理&lt;/font&gt;" style="dashed=0;connectable=0;html=1;fillColor=#5184F3;strokeColor=none;shape=mxgraph.gcp2.hexIcon;prIcon=compute_engine;part=1;labelPosition=right;verticalLabelPosition=middle;align=left;verticalAlign=middle;spacingLeft=5;fontColor=#999999;fontSize=12;" parent="382" vertex="1">
          <mxGeometry y="0.5" width="44" height="39" relative="1" as="geometry">
            <mxPoint x="5" y="-19.5" as="offset" />
          </mxGeometry>
        </mxCell>
        <mxCell id="412" style="edgeStyle=orthogonalEdgeStyle;rounded=0;html=1;dashed=0;labelBackgroundColor=none;startArrow=none;startFill=0;startSize=4;endArrow=blockThin;endFill=1;endSize=4;strokeColor=#4284F3;strokeWidth=2;fontSize=12;entryX=0.533;entryY=0.868;entryDx=0;entryDy=0;entryPerimeter=0;" parent="1" source="386" target="382" edge="1">
          <mxGeometry relative="1" as="geometry">
            <Array as="points" />
            <mxPoint x="759" y="475" as="targetPoint" />
          </mxGeometry>
        </mxCell>
        <mxCell id="386" value="" style="strokeColor=#dddddd;fillColor=#ffffff;shadow=1;strokeWidth=1;rounded=1;absoluteArcSize=1;arcSize=2;fontSize=12;fontColor=#9E9E9E;align=center;html=1;" parent="1" vertex="1">
          <mxGeometry x="690.5" y="460" width="158" height="60" as="geometry" />
        </mxCell>
        <mxCell id="387" value="&lt;font color=&quot;#000000&quot;&gt;App Restful API&lt;/font&gt;" style="dashed=0;connectable=0;html=1;fillColor=#5184F3;strokeColor=none;shape=mxgraph.gcp2.hexIcon;prIcon=cloud_datalab;part=1;labelPosition=right;verticalLabelPosition=middle;align=left;verticalAlign=middle;spacingLeft=5;fontColor=#999999;fontSize=12;" parent="386" vertex="1">
          <mxGeometry y="0.5" width="44" height="39" relative="1" as="geometry">
            <mxPoint x="5" y="-19.5" as="offset" />
          </mxGeometry>
        </mxCell>
        <mxCell id="OkfPjaItKJtlT03lLJa_-417" style="edgeStyle=orthogonalEdgeStyle;rounded=0;orthogonalLoop=1;jettySize=auto;html=1;" edge="1" parent="1" source="391">
          <mxGeometry relative="1" as="geometry">
            <mxPoint x="770" y="410" as="targetPoint" />
          </mxGeometry>
        </mxCell>
        <mxCell id="391" value="人工配置" style="rounded=1;absoluteArcSize=1;arcSize=2;html=1;strokeColor=none;gradientColor=none;shadow=0;dashed=0;fontSize=12;fontColor=#9E9E9E;align=left;verticalAlign=top;spacing=10;spacingTop=-4;fillColor=#F3E5F5;" parent="1" vertex="1">
          <mxGeometry x="898.5" y="376" width="170" height="128" as="geometry" />
        </mxCell>
        <mxCell id="gkzEU2F8MHpK_U1UK7pQ-412" value="" style="strokeColor=#dddddd;fillColor=#ffffff;shadow=1;strokeWidth=1;rounded=1;absoluteArcSize=1;arcSize=2;labelPosition=center;verticalLabelPosition=middle;align=center;verticalAlign=bottom;spacingLeft=0;fontColor=#999999;fontSize=12;whiteSpace=wrap;spacingBottom=2;html=1;" parent="1" vertex="1">
          <mxGeometry x="130.5" y="210" width="70" height="70" as="geometry" />
        </mxCell>
        <mxCell id="gkzEU2F8MHpK_U1UK7pQ-413" value="" style="dashed=0;connectable=0;html=1;fillColor=#757575;strokeColor=none;shape=mxgraph.gcp2.users;part=1;" parent="gkzEU2F8MHpK_U1UK7pQ-412" vertex="1">
          <mxGeometry x="0.5" width="50" height="31.5" relative="1" as="geometry">
            <mxPoint x="-25" y="19.25" as="offset" />
          </mxGeometry>
        </mxCell>
        <mxCell id="gkzEU2F8MHpK_U1UK7pQ-420" value="" style="shape=mxgraph.gcp2.doubleRect;strokeColor=#dddddd;shadow=1;strokeWidth=1;" parent="1" vertex="1">
          <mxGeometry x="435" y="460" width="150" height="63" as="geometry" />
        </mxCell>
        <mxCell id="gkzEU2F8MHpK_U1UK7pQ-421" value="&lt;font color=&quot;#000000&quot;&gt;用户身份信息&lt;/font&gt;" style="dashed=0;connectable=0;html=1;fillColor=#5184F3;strokeColor=none;shape=mxgraph.gcp2.hexIcon;prIcon=cloud_filestore;part=1;labelPosition=right;verticalLabelPosition=middle;align=left;verticalAlign=middle;spacingLeft=5;fontColor=#999999;fontSize=12;" parent="gkzEU2F8MHpK_U1UK7pQ-420" vertex="1">
          <mxGeometry y="0.5" width="44" height="39" relative="1" as="geometry">
            <mxPoint x="5" y="-19.5" as="offset" />
          </mxGeometry>
        </mxCell>
        <mxCell id="gkzEU2F8MHpK_U1UK7pQ-422" value="" style="strokeWidth=1;shadow=0;dashed=0;align=center;html=1;shape=mxgraph.mockup.forms.rrect;rSize=0;strokeColor=#999999;" parent="1" vertex="1">
          <mxGeometry x="320" y="700" width="498" height="30" as="geometry" />
        </mxCell>
        <mxCell id="gkzEU2F8MHpK_U1UK7pQ-423" value="用户id" style="strokeColor=inherit;fillColor=inherit;gradientColor=inherit;strokeWidth=1;shadow=0;dashed=0;align=center;html=1;shape=mxgraph.mockup.forms.rrect;rSize=0;fontSize=17;fontColor=#666666;" parent="gkzEU2F8MHpK_U1UK7pQ-422" vertex="1">
          <mxGeometry width="83" height="30" as="geometry" />
        </mxCell>
        <mxCell id="gkzEU2F8MHpK_U1UK7pQ-424" value="身份_id" style="strokeColor=inherit;fillColor=inherit;gradientColor=inherit;strokeWidth=1;shadow=0;dashed=0;align=center;html=1;shape=mxgraph.mockup.forms.rrect;rSize=0;fontSize=17;fontColor=#666666;" parent="gkzEU2F8MHpK_U1UK7pQ-422" vertex="1">
          <mxGeometry x="83" width="83" height="30" as="geometry" />
        </mxCell>
        <mxCell id="gkzEU2F8MHpK_U1UK7pQ-425" value="Options" style="strokeColor=inherit;fillColor=inherit;gradientColor=inherit;strokeWidth=1;shadow=0;dashed=0;align=center;html=1;shape=mxgraph.mockup.forms.rrect;rSize=0;fontSize=17;fontColor=#666666;" parent="gkzEU2F8MHpK_U1UK7pQ-422" vertex="1">
          <mxGeometry x="166" width="83" height="30" as="geometry" />
        </mxCell>
        <mxCell id="gkzEU2F8MHpK_U1UK7pQ-426" value="显示名称" style="strokeColor=inherit;fillColor=inherit;gradientColor=inherit;strokeWidth=1;shadow=0;dashed=0;align=center;html=1;shape=mxgraph.mockup.forms.rrect;rSize=0;fontSize=17;fontColor=#666666;" parent="gkzEU2F8MHpK_U1UK7pQ-422" vertex="1">
          <mxGeometry x="249" width="83" height="30" as="geometry" />
        </mxCell>
        <mxCell id="gkzEU2F8MHpK_U1UK7pQ-427" value="呢称" style="strokeColor=inherit;fillColor=inherit;gradientColor=inherit;strokeWidth=1;shadow=0;dashed=0;align=center;html=1;shape=mxgraph.mockup.forms.rrect;rSize=0;fontSize=17;fontColor=#666666;" parent="gkzEU2F8MHpK_U1UK7pQ-422" vertex="1">
          <mxGeometry x="332" width="83" height="30" as="geometry" />
        </mxCell>
        <mxCell id="gkzEU2F8MHpK_U1UK7pQ-428" value="...." style="strokeColor=inherit;fillColor=inherit;gradientColor=inherit;strokeWidth=1;shadow=0;dashed=0;align=center;html=1;shape=mxgraph.mockup.forms.rrect;rSize=0;fontSize=17;fontColor=#666666;" parent="gkzEU2F8MHpK_U1UK7pQ-422" vertex="1">
          <mxGeometry x="415" width="83" height="30" as="geometry" />
        </mxCell>
        <mxCell id="OkfPjaItKJtlT03lLJa_-413" style="edgeStyle=orthogonalEdgeStyle;rounded=0;html=1;dashed=0;labelBackgroundColor=none;startArrow=none;startFill=0;startSize=4;endArrow=blockThin;endFill=1;endSize=4;strokeColor=#4284F3;strokeWidth=2;fontSize=12;" edge="1" parent="1">
          <mxGeometry relative="1" as="geometry">
            <Array as="points">
              <mxPoint x="764" y="200" />
              <mxPoint x="764" y="200" />
            </Array>
            <mxPoint x="764" y="175" as="sourcePoint" />
            <mxPoint x="764" y="206" as="targetPoint" />
          </mxGeometry>
        </mxCell>
        <mxCell id="OkfPjaItKJtlT03lLJa_-415" value="" style="sketch=0;html=1;aspect=fixed;strokeColor=none;shadow=0;align=center;verticalAlign=top;fillColor=#3B8DF1;shape=mxgraph.gcp2.connected" vertex="1" parent="1">
          <mxGeometry x="690.5" y="216.2" width="80" height="57.6" as="geometry" />
        </mxCell>
        <mxCell id="OkfPjaItKJtlT03lLJa_-416" value="组织机构" style="text;html=1;resizable=0;autosize=1;align=center;verticalAlign=middle;points=[];fillColor=none;strokeColor=none;rounded=0;" vertex="1" parent="1">
          <mxGeometry x="760.5" y="230.5" width="60" height="20" as="geometry" />
        </mxCell>
        <mxCell id="OkfPjaItKJtlT03lLJa_-414" value="" style="shadow=0;dashed=0;html=1;strokeColor=none;fillColor=#4495D1;labelPosition=center;verticalLabelPosition=bottom;verticalAlign=top;align=center;outlineConnect=0;shape=mxgraph.veeam.portal_admin;" vertex="1" parent="1">
          <mxGeometry x="918.5" y="426.2" width="44.4" height="48.8" as="geometry" />
        </mxCell>
        <mxCell id="OkfPjaItKJtlT03lLJa_-418" style="edgeStyle=orthogonalEdgeStyle;rounded=0;html=1;dashed=0;labelBackgroundColor=none;startArrow=none;startFill=0;startSize=4;endArrow=blockThin;endFill=1;endSize=4;strokeColor=#4284F3;strokeWidth=2;fontSize=12;entryX=0;entryY=0.25;entryDx=0;entryDy=0;" edge="1" parent="1" source="363" target="376">
          <mxGeometry relative="1" as="geometry">
            <Array as="points">
              <mxPoint x="595" y="130" />
            </Array>
            <mxPoint x="595" y="501.5" as="sourcePoint" />
            <mxPoint x="690.5" y="245" as="targetPoint" />
          </mxGeometry>
        </mxCell>
        <mxCell id="OkfPjaItKJtlT03lLJa_-445" value="获取可见菜单" style="edgeLabel;html=1;align=center;verticalAlign=middle;resizable=0;points=[];" vertex="1" connectable="0" parent="OkfPjaItKJtlT03lLJa_-418">
          <mxGeometry x="-0.3276" relative="1" as="geometry">
            <mxPoint as="offset" />
          </mxGeometry>
        </mxCell>
        <mxCell id="OkfPjaItKJtlT03lLJa_-422" value="" style="strokeWidth=1;shadow=0;dashed=0;align=center;html=1;shape=mxgraph.mockup.forms.rrect;rSize=0;strokeColor=#999999;" vertex="1" parent="1">
          <mxGeometry x="898.5" y="225.5" width="498" height="30" as="geometry" />
        </mxCell>
        <mxCell id="OkfPjaItKJtlT03lLJa_-423" value="&lt;span style=&quot;color: rgb(51 , 51 , 51) ; font-family: &amp;#34;helvetica neue&amp;#34; , &amp;#34;helvetica&amp;#34; , &amp;#34;arial&amp;#34; , sans-serif ; font-size: 14px ; font-weight: 700 ; text-align: left ; background-color: rgb(255 , 255 , 255)&quot;&gt;role_group_id&lt;/span&gt;" style="strokeColor=inherit;fillColor=inherit;gradientColor=inherit;strokeWidth=1;shadow=0;dashed=0;align=center;html=1;shape=mxgraph.mockup.forms.rrect;rSize=0;fontSize=17;fontColor=#666666;" vertex="1" parent="OkfPjaItKJtlT03lLJa_-422">
          <mxGeometry width="140" height="30" as="geometry" />
        </mxCell>
        <mxCell id="OkfPjaItKJtlT03lLJa_-426" value="名称" style="strokeColor=inherit;fillColor=inherit;gradientColor=inherit;strokeWidth=1;shadow=0;dashed=0;align=center;html=1;shape=mxgraph.mockup.forms.rrect;rSize=0;fontSize=17;fontColor=#666666;" vertex="1" parent="OkfPjaItKJtlT03lLJa_-422">
          <mxGeometry x="249" width="83" height="30" as="geometry" />
        </mxCell>
        <mxCell id="OkfPjaItKJtlT03lLJa_-428" value="...." style="strokeColor=inherit;fillColor=inherit;gradientColor=inherit;strokeWidth=1;shadow=0;dashed=0;align=center;html=1;shape=mxgraph.mockup.forms.rrect;rSize=0;fontSize=17;fontColor=#666666;" vertex="1" parent="OkfPjaItKJtlT03lLJa_-422">
          <mxGeometry x="415" width="83" height="30" as="geometry" />
        </mxCell>
        <mxCell id="OkfPjaItKJtlT03lLJa_-429" value="表：auth_role_group&amp;nbsp;&lt;span style=&quot;color: rgba(0 , 0 , 0 , 0) ; font-family: monospace ; font-size: 0px&quot;&gt;%3CmxGraphModel%3E%3Croot%3E%3CmxCell%20id%3D%220%22%2F%3E%3CmxCell%20id%3D%221%22%20parent%3D%220%22%2F%3E%3CmxCell%20id%3D%222%22%20value%3D%22%22%20style%3D%22strokeWidth%3D1%3Bshadow%3D0%3Bdashed%3D0%3Balign%3Dcenter%3Bhtml%3D1%3Bshape%3Dmxgraph.mockup.forms.rrect%3BrSize%3D0%3BstrokeColor%3D%23999999%3B%22%20vertex%3D%221%22%20parent%3D%221%22%3E%3CmxGeometry%20x%3D%22320%22%20y%3D%22700%22%20width%3D%22498%22%20height%3D%2230%22%20as%3D%22geometry%22%2F%3E%3C%2FmxCell%3E%3CmxCell%20id%3D%223%22%20value%3D%22%E7%94%A8%E6%88%B7id%22%20style%3D%22strokeColor%3Dinherit%3BfillColor%3Dinherit%3BgradientColor%3Dinherit%3BstrokeWidth%3D1%3Bshadow%3D0%3Bdashed%3D0%3Balign%3Dcenter%3Bhtml%3D1%3Bshape%3Dmxgraph.mockup.forms.rrect%3BrSize%3D0%3BfontSize%3D17%3BfontColor%3D%23666666%3B%22%20vertex%3D%221%22%20parent%3D%222%22%3E%3CmxGeometry%20width%3D%2283%22%20height%3D%2230%22%20as%3D%22geometry%22%2F%3E%3C%2FmxCell%3E%3CmxCell%20id%3D%224%22%20value%3D%22%E8%BA%AB%E4%BB%BD_id%22%20style%3D%22strokeColor%3Dinherit%3BfillColor%3Dinherit%3BgradientColor%3Dinherit%3BstrokeWidth%3D1%3Bshadow%3D0%3Bdashed%3D0%3Balign%3Dcenter%3Bhtml%3D1%3Bshape%3Dmxgraph.mockup.forms.rrect%3BrSize%3D0%3BfontSize%3D17%3BfontColor%3D%23666666%3B%22%20vertex%3D%221%22%20parent%3D%222%22%3E%3CmxGeometry%20x%3D%2283%22%20width%3D%2283%22%20height%3D%2230%22%20as%3D%22geometry%22%2F%3E%3C%2FmxCell%3E%3CmxCell%20id%3D%225%22%20value%3D%22Options%22%20style%3D%22strokeColor%3Dinherit%3BfillColor%3Dinherit%3BgradientColor%3Dinherit%3BstrokeWidth%3D1%3Bshadow%3D0%3Bdashed%3D0%3Balign%3Dcenter%3Bhtml%3D1%3Bshape%3Dmxgraph.mockup.forms.rrect%3BrSize%3D0%3BfontSize%3D17%3BfontColor%3D%23666666%3B%22%20vertex%3D%221%22%20parent%3D%222%22%3E%3CmxGeometry%20x%3D%22166%22%20width%3D%2283%22%20height%3D%2230%22%20as%3D%22geometry%22%2F%3E%3C%2FmxCell%3E%3CmxCell%20id%3D%226%22%20value%3D%22%E6%98%BE%E7%A4%BA%E5%90%8D%E7%A7%B0%22%20style%3D%22strokeColor%3Dinherit%3BfillColor%3Dinherit%3BgradientColor%3Dinherit%3BstrokeWidth%3D1%3Bshadow%3D0%3Bdashed%3D0%3Balign%3Dcenter%3Bhtml%3D1%3Bshape%3Dmxgraph.mockup.forms.rrect%3BrSize%3D0%3BfontSize%3D17%3BfontColor%3D%23666666%3B%22%20vertex%3D%221%22%20parent%3D%222%22%3E%3CmxGeometry%20x%3D%22249%22%20width%3D%2283%22%20height%3D%2230%22%20as%3D%22geometry%22%2F%3E%3C%2FmxCell%3E%3CmxCell%20id%3D%227%22%20value%3D%22%E5%91%A2%E7%A7%B0%22%20style%3D%22strokeColor%3Dinherit%3BfillColor%3Dinherit%3BgradientColor%3Dinherit%3BstrokeWidth%3D1%3Bshadow%3D0%3Bdashed%3D0%3Balign%3Dcenter%3Bhtml%3D1%3Bshape%3Dmxgraph.mockup.forms.rrect%3BrSize%3D0%3BfontSize%3D17%3BfontColor%3D%23666666%3B%22%20vertex%3D%221%22%20parent%3D%222%22%3E%3CmxGeometry%20x%3D%22332%22%20width%3D%2283%22%20height%3D%2230%22%20as%3D%22geometry%22%2F%3E%3C%2FmxCell%3E%3CmxCell%20id%3D%228%22%20value%3D%22....%22%20style%3D%22strokeColor%3Dinherit%3BfillColor%3Dinherit%3BgradientColor%3Dinherit%3BstrokeWidth%3D1%3Bshadow%3D0%3Bdashed%3D0%3Balign%3Dcenter%3Bhtml%3D1%3Bshape%3Dmxgraph.mockup.forms.rrect%3BrSize%3D0%3BfontSize%3D17%3BfontColor%3D%23666666%3B%22%20vertex%3D%221%22%20parent%3D%222%22%3E%3CmxGeometry%20x%3D%22415%22%20width%3D%2283%22%20height%3D%2230%22%20as%3D%22geometry%22%2F%3E%3C%2FmxCell%3E%3C%2Froot%3E%3C%2FmxGraphModel%3E&lt;/span&gt;" style="text;html=1;resizable=0;autosize=1;align=center;verticalAlign=middle;points=[];fillColor=none;strokeColor=none;rounded=0;" vertex="1" parent="1">
          <mxGeometry x="898.5" y="190" width="130" height="20" as="geometry" />
        </mxCell>
        <mxCell id="OkfPjaItKJtlT03lLJa_-430" value="&lt;span style=&quot;color: rgb(51 , 51 , 51) ; font-family: &amp;#34;helvetica neue&amp;#34; , &amp;#34;helvetica&amp;#34; , &amp;#34;arial&amp;#34; , sans-serif ; font-size: 14px ; background-color: rgb(245 , 245 , 245)&quot;&gt;auth_user_role_group&lt;/span&gt;" style="text;html=1;resizable=0;autosize=1;align=center;verticalAlign=middle;points=[];fillColor=none;strokeColor=none;rounded=0;" vertex="1" parent="1">
          <mxGeometry x="898.5" y="95" width="150" height="20" as="geometry" />
        </mxCell>
        <mxCell id="OkfPjaItKJtlT03lLJa_-431" value="" style="strokeWidth=1;shadow=0;dashed=0;align=center;html=1;shape=mxgraph.mockup.forms.rrect;rSize=0;strokeColor=#999999;" vertex="1" parent="1">
          <mxGeometry x="898.5" y="130" width="498" height="30" as="geometry" />
        </mxCell>
        <mxCell id="OkfPjaItKJtlT03lLJa_-432" value="用户id" style="strokeColor=inherit;fillColor=inherit;gradientColor=inherit;strokeWidth=1;shadow=0;dashed=0;align=center;html=1;shape=mxgraph.mockup.forms.rrect;rSize=0;fontSize=17;fontColor=#666666;" vertex="1" parent="OkfPjaItKJtlT03lLJa_-431">
          <mxGeometry width="83" height="30" as="geometry" />
        </mxCell>
        <mxCell id="OkfPjaItKJtlT03lLJa_-433" value="身份_id" style="strokeColor=inherit;fillColor=inherit;gradientColor=inherit;strokeWidth=1;shadow=0;dashed=0;align=center;html=1;shape=mxgraph.mockup.forms.rrect;rSize=0;fontSize=17;fontColor=#666666;" vertex="1" parent="OkfPjaItKJtlT03lLJa_-431">
          <mxGeometry x="83" width="83" height="30" as="geometry" />
        </mxCell>
        <mxCell id="OkfPjaItKJtlT03lLJa_-434" value="&lt;span style=&quot;color: rgb(51 , 51 , 51) ; font-family: &amp;#34;helvetica neue&amp;#34; , &amp;#34;helvetica&amp;#34; , &amp;#34;arial&amp;#34; , sans-serif ; font-size: 14px ; background-color: rgb(245 , 245 , 245)&quot;&gt;role_group_id&lt;/span&gt;" style="strokeColor=inherit;fillColor=inherit;gradientColor=inherit;strokeWidth=1;shadow=0;dashed=0;align=center;html=1;shape=mxgraph.mockup.forms.rrect;rSize=0;fontSize=17;fontColor=#666666;" vertex="1" parent="OkfPjaItKJtlT03lLJa_-431">
          <mxGeometry x="160" width="100" height="30" as="geometry" />
        </mxCell>
        <mxCell id="OkfPjaItKJtlT03lLJa_-435" value="app_id" style="strokeColor=inherit;fillColor=inherit;gradientColor=inherit;strokeWidth=1;shadow=0;dashed=0;align=center;html=1;shape=mxgraph.mockup.forms.rrect;rSize=0;fontSize=17;fontColor=#666666;" vertex="1" parent="OkfPjaItKJtlT03lLJa_-431">
          <mxGeometry x="249" width="83" height="30" as="geometry" />
        </mxCell>
        <mxCell id="OkfPjaItKJtlT03lLJa_-436" value="create_time" style="strokeColor=inherit;fillColor=inherit;gradientColor=inherit;strokeWidth=1;shadow=0;dashed=0;align=center;html=1;shape=mxgraph.mockup.forms.rrect;rSize=0;fontSize=17;fontColor=#666666;" vertex="1" parent="OkfPjaItKJtlT03lLJa_-431">
          <mxGeometry x="332" width="83" height="30" as="geometry" />
        </mxCell>
        <mxCell id="OkfPjaItKJtlT03lLJa_-437" value="...." style="strokeColor=inherit;fillColor=inherit;gradientColor=inherit;strokeWidth=1;shadow=0;dashed=0;align=center;html=1;shape=mxgraph.mockup.forms.rrect;rSize=0;fontSize=17;fontColor=#666666;" vertex="1" parent="OkfPjaItKJtlT03lLJa_-431">
          <mxGeometry x="415" width="83" height="30" as="geometry" />
        </mxCell>
        <mxCell id="OkfPjaItKJtlT03lLJa_-438" style="edgeStyle=orthogonalEdgeStyle;rounded=0;orthogonalLoop=1;jettySize=auto;html=1;" edge="1" parent="1" source="OkfPjaItKJtlT03lLJa_-434" target="OkfPjaItKJtlT03lLJa_-423">
          <mxGeometry relative="1" as="geometry">
            <Array as="points">
              <mxPoint x="1109" y="210" />
              <mxPoint x="969" y="210" />
            </Array>
          </mxGeometry>
        </mxCell>
        <mxCell id="OkfPjaItKJtlT03lLJa_-440" style="edgeStyle=orthogonalEdgeStyle;rounded=0;html=1;dashed=0;labelBackgroundColor=none;startArrow=none;startFill=0;startSize=4;endArrow=blockThin;endFill=1;endSize=4;strokeColor=#b85450;strokeWidth=2;fontSize=12;fillColor=#f8cecc;" edge="1" parent="1">
          <mxGeometry relative="1" as="geometry">
            <Array as="points">
              <mxPoint x="1200" y="120" />
              <mxPoint x="1200" y="120" />
            </Array>
            <mxPoint x="1200" y="95" as="sourcePoint" />
            <mxPoint x="1200" y="126" as="targetPoint" />
          </mxGeometry>
        </mxCell>
        <mxCell id="OkfPjaItKJtlT03lLJa_-441" style="edgeStyle=orthogonalEdgeStyle;rounded=0;html=1;dashed=0;labelBackgroundColor=none;startArrow=none;startFill=0;startSize=4;endArrow=blockThin;endFill=1;endSize=4;strokeColor=#b85450;strokeWidth=2;fontSize=12;fillColor=#f8cecc;" edge="1" parent="1">
          <mxGeometry relative="1" as="geometry">
            <Array as="points">
              <mxPoint x="1048.5" y="94" />
              <mxPoint x="1048.5" y="94" />
            </Array>
            <mxPoint x="1048.5" y="99" as="sourcePoint" />
            <mxPoint x="1048.5" y="130" as="targetPoint" />
          </mxGeometry>
        </mxCell>
        <mxCell id="OkfPjaItKJtlT03lLJa_-442" value="新加字段" style="text;html=1;resizable=0;autosize=1;align=center;verticalAlign=middle;points=[];fillColor=none;strokeColor=none;rounded=0;" vertex="1" parent="1">
          <mxGeometry x="1050" y="90" width="60" height="20" as="geometry" />
        </mxCell>
        <mxCell id="OkfPjaItKJtlT03lLJa_-443" value="新加字段" style="text;html=1;resizable=0;autosize=1;align=center;verticalAlign=middle;points=[];fillColor=none;strokeColor=none;rounded=0;" vertex="1" parent="1">
          <mxGeometry x="1190" y="80" width="60" height="20" as="geometry" />
        </mxCell>
        <mxCell id="OkfPjaItKJtlT03lLJa_-444" value="添加用户组" style="text;html=1;resizable=0;autosize=1;align=center;verticalAlign=middle;points=[];fillColor=none;strokeColor=none;rounded=0;" vertex="1" parent="1">
          <mxGeometry x="580" y="510" width="80" height="20" as="geometry" />
        </mxCell>
      </root>
    </mxGraphModel>
  </diagram>
</mxfile>
